<svg width="164" height="82" viewBox="0 0 164 82" fill="none" xmlns="http://www.w3.org/2000/svg">
<path d="M117.367 48.7618H131.342C131.651 48.7618 131.947 48.8835 132.165 49.1C132.383 49.3166 132.506 49.6104 132.506 49.9167V60.4238C132.506 60.73 132.383 61.0238 132.165 61.2404C131.947 61.457 131.651 61.5786 131.342 61.5786H117.248" stroke="#111111" stroke-width="0.548242" stroke-linecap="round" stroke-linejoin="round"/>
<path d="M132.507 55.2598H117.367" stroke="#111111" stroke-width="0.548242" stroke-linecap="round" stroke-linejoin="round"/>
<path d="M128.748 48.8517V62.0725" stroke="#111111" stroke-width="0.548242" stroke-linecap="round" stroke-linejoin="round"/>
<path d="M77.5312 16.2641V5.58762C77.5312 4.39969 78.0069 3.26041 78.8537 2.42042C79.7004 1.58042 80.8488 1.10852 82.0463 1.10852H112.758C113.351 1.10852 113.938 1.22438 114.485 1.44949C115.033 1.6746 115.531 2.00454 115.95 2.42047C116.369 2.83641 116.702 3.33019 116.929 3.87361C117.155 4.41704 117.272 4.99946 117.272 5.58762V76.4834C117.272 77.6711 116.796 78.8101 115.95 79.6499C115.103 80.4898 113.955 80.9616 112.758 80.9616H82.0463C80.849 80.9616 79.7007 80.4898 78.854 79.65C78.0073 78.8102 77.5315 77.6711 77.5312 76.4834V59.6358" stroke="#111111" stroke-width="0.548242" stroke-linecap="round" stroke-linejoin="round"/>
<path d="M79.7158 60.1085V75.1282C79.7158 76.861 81.1767 78.2659 82.9791 78.2659H108.476C110.278 78.2659 111.739 76.861 111.739 75.1282L111.739 7.09479C111.739 5.36202 110.278 3.95715 108.476 3.95715H102.267V5.26692C102.264 5.4748 102.178 5.67286 102.027 5.81757C101.877 5.96228 101.674 6.04179 101.465 6.03865H89.9886C89.779 6.04179 89.5768 5.96228 89.4263 5.81757C89.2758 5.67286 89.1894 5.4748 89.186 5.26692V3.95715H82.9827C81.1804 3.95715 79.7195 5.36202 79.7195 7.09479V17.0892" stroke="#111111" stroke-width="0.548242" stroke-linecap="round" stroke-linejoin="round"/>
<path d="M111.561 1.1084C113.167 1.94715 114.256 3.58481 114.256 5.46613L114.256 61.1954" stroke="#111111" stroke-width="0.548242" stroke-linecap="round" stroke-linejoin="round"/>
<path d="M111.886 76.0595C102.859 75.9408 100.734 74.7914 95.0863 69.3231C89.4391 63.8549 82.4342 64.181 80.0063 64.45" stroke="#111111" stroke-width="0.548242" stroke-linecap="round" stroke-linejoin="round"/>
<path d="M80.1519 19.3148C82.5842 19.0431 89.4431 17.0332 95.0876 22.4969C100.677 27.908 102.816 33.4668 111.623 33.6887" stroke="#111111" stroke-width="0.548242" stroke-linecap="round" stroke-linejoin="round"/>
<path d="M101.883 57.7553C100.765 57.3929 98.8696 56.6683 98.9153 56.0143C98.9838 55.0877 102.609 55.9527 102.609 55.9527L102.672 53.182C102.672 53.182 98.2351 53.1738 95.4758 53.8088L95.3599 58.5614L97.563 59.1628C98.5991 59.4395 99.5224 60.0297 100.205 60.8512C101.022 62.3132 100.949 63.2769 101.118 64.0269C101.201 64.3624 101.404 64.6564 101.69 64.854C101.975 65.0515 102.324 65.1391 102.67 65.1003V58.8223C102.668 58.585 102.591 58.3542 102.45 58.1627C102.309 57.9712 102.11 57.8286 101.883 57.7553Z" fill="#111111"/>
<path d="M64.923 74.3584L64.6892 76.689C64.6152 77.5773 64.2125 78.4071 63.5589 79.0187C62.339 79.7433 61.4351 79.6754 60.7686 79.8275C60.1596 79.967 59.8382 80.5612 60.029 81.198H66.603C66.603 81.198 66.9545 77.8203 67.8237 77.881C68.6929 77.9417 69.2654 81.3501 69.2654 81.3501H71.843C71.843 81.3501 70.4926 76.7931 69.1531 74.3955L64.923 74.3584Z" fill="#111111"/>
<path d="M84.3184 27.4097L81.3856 27.1044V27.253L81.4158 27.3771C80.7081 29.098 79.1331 30.4241 76.9993 30.5391C73.7498 30.7149 74.6637 27.0718 74.7258 26.8598L74.6537 26.6542L71.458 26.3988L73.7251 45.2201L84.4991 45.3487C80.815 39.7582 83.1551 34.7519 84.3184 27.4097ZM75.4362 35.6804C75.4207 35.61 75.434 35.5364 75.4732 35.4758C75.5125 35.4151 75.5743 35.3724 75.6453 35.357L78.5552 34.7293L80.899 30.2076C80.9334 30.1457 80.9909 30.0995 81.0591 30.079C81.1274 30.0584 81.201 30.0651 81.2644 30.0975C81.3277 30.1299 81.3759 30.1856 81.3985 30.2527C81.4211 30.3198 81.4165 30.393 81.3856 30.4567L78.9834 35.0925C78.9652 35.1279 78.9394 35.1588 78.9079 35.1833C78.8763 35.2077 78.8398 35.2249 78.8008 35.2338L75.7621 35.8905C75.7429 35.8941 75.7233 35.8959 75.7037 35.896C75.641 35.8958 75.5802 35.8744 75.5315 35.8351C75.4828 35.7959 75.4491 35.7413 75.4362 35.6804ZM82.1444 40.3207C82.0026 40.537 81.8172 40.7218 81.5999 40.8635C81.3826 41.0052 81.138 41.1007 80.8816 41.1441L75.8845 41.9701C75.8693 41.9714 75.854 41.9714 75.8388 41.9701C75.8029 41.9731 75.7667 41.9689 75.7323 41.9579C75.698 41.947 75.6661 41.9294 75.6386 41.9062C75.6111 41.8831 75.5884 41.8548 75.572 41.8229C75.5555 41.791 75.5455 41.7563 75.5426 41.7206C75.5396 41.6849 75.5438 41.649 75.5548 41.6149C75.5659 41.5808 75.5836 41.5492 75.607 41.522C75.6303 41.4947 75.6589 41.4722 75.691 41.4558C75.7231 41.4395 75.7581 41.4296 75.7941 41.4267L80.7903 40.606C80.9722 40.5758 81.1457 40.5086 81.3001 40.4085C81.4544 40.3084 81.5861 40.1777 81.6869 40.0245C81.7048 39.9911 81.7294 39.9618 81.7593 39.9383C81.7892 39.9149 81.8237 39.8979 81.8606 39.8885C81.8975 39.879 81.936 39.8773 81.9736 39.8835C82.0112 39.8896 82.0471 39.9035 82.079 39.9242C82.1109 39.9449 82.1381 39.9719 82.1588 40.0036C82.1795 40.0354 82.1934 40.071 82.1995 40.1083C82.2055 40.1456 82.2037 40.1838 82.1941 40.2204C82.1844 40.2569 82.1672 40.2911 82.1435 40.3207H82.1444Z" fill="#111111"/>
<path d="M70.9692 52.7217L72.8273 57.3775C73.0744 57.9174 73.4745 58.3743 73.9789 58.6925C74.4833 59.0106 75.0701 59.1762 75.6678 59.1691L95.251 63.064L95.4975 52.9128L80.6586 52.3694L80.0194 45.3323" stroke="#111111" stroke-width="0.548242" stroke-linecap="round" stroke-linejoin="round"/>
<path d="M70.6438 40.3634C70.6438 40.3634 62.2245 50.2537 61.4037 52.5172C60.5828 54.7808 61.7689 74.3303 61.7689 74.3303L70.8017 74.41L69.5307 53.9592L81.8953 43.6043L70.6438 40.3634Z" stroke="#111111" stroke-width="0.548242" stroke-linecap="round" stroke-linejoin="round"/>
<path d="M82.6302 25.3609C83.1177 25.1244 83.2319 24.2812 82.8849 23.4641C82.7286 23.069 82.4584 22.7284 82.1079 22.485" stroke="#6D6D6D" stroke-width="0.548242" stroke-linecap="round" stroke-linejoin="round"/>
<path d="M81.2366 16.4162C80.2825 15.5802 79.9182 11.5159 82.8701 9.00779C85.8585 6.4716 87.9604 9.41449 88.4187 10.1853C88.8771 10.9561 89.1099 13.0005 86.5607 14.745C84.0114 16.4896 82.3259 17.3709 81.2366 16.4162Z" fill="#111111"/>
<path d="M80.7827 17.9677L81.6647 17.0121C81.7393 16.9337 81.7975 16.8414 81.8359 16.7406C81.8743 16.6397 81.8921 16.5323 81.8884 16.4245C81.8846 16.3168 81.8594 16.2109 81.8141 16.1129C81.7688 16.0149 81.7044 15.9267 81.6245 15.8536L81.567 15.8038C81.3981 15.6601 81.1789 15.588 80.9569 15.603C80.7349 15.6181 80.5277 15.7192 80.3801 15.8844L79.498 16.8391L80.7827 17.9677Z" fill="#6D6D6D"/>
<path d="M80.6992 22.6734C80.8459 22.7671 81.014 22.8225 81.188 22.8343C81.362 22.8462 81.5363 22.8142 81.6944 22.7413C81.9497 22.6293 82.1512 22.4233 82.2565 22.1669C82.3617 21.9104 82.3625 21.6234 82.2587 21.3663C82.1644 21.1458 81.9931 20.9664 81.7763 20.8609C81.5595 20.7554 81.3116 20.731 81.0781 20.7921" stroke="#111111" stroke-width="0.548242" stroke-linecap="round" stroke-linejoin="round"/>
<path d="M74.4388 20.2206C74.1895 20.1407 73.9189 20.1569 73.681 20.2658C73.427 20.3787 73.2268 20.5847 73.1225 20.8407C73.0182 21.0966 73.0177 21.3827 73.1213 21.639C73.2129 21.8529 73.3771 22.0283 73.5854 22.1349C73.7936 22.2414 74.0329 22.2723 74.2617 22.2223" stroke="#111111" stroke-width="0.548242" stroke-linecap="round" stroke-linejoin="round"/>
<path d="M76.2371 25.4323L76.2983 26.9858L74.7287 26.859C74.6666 27.0709 73.7527 30.714 77.0022 30.5383C79.1342 30.4232 80.7111 29.1008 81.4187 27.3762L80.1605 27.2312L80.1221 24.051" stroke="#111111" stroke-width="0.548242" stroke-linecap="round" stroke-linejoin="round"/>
<path d="M80.9296 21.9006C81.3875 19.5213 80.2935 17.3151 78.4861 16.9727C76.6787 16.6303 74.8423 18.2815 74.3843 20.6608C73.9264 23.04 75.0204 25.2463 76.8278 25.5887C78.6352 25.931 80.4716 24.2798 80.9296 21.9006Z" stroke="#111111" stroke-width="0.548242" stroke-linecap="round" stroke-linejoin="round"/>
<path d="M81.3541 17.4815C80.6117 16.6056 79.4074 16.0241 78.4067 15.9245C72.1532 14.8611 73.0909 18.8773 73.0909 18.8773L74.3309 18.8393C74.0159 19.6608 74.0058 20.4452 74.3309 20.9597C74.3309 20.9497 74.3309 20.9398 74.3309 20.9298C74.4356 20.182 74.6915 19.463 75.0832 18.8157L78.7509 18.7025C78.6487 18.159 79.0422 17.9226 79.4029 17.6473C79.3928 17.8601 79.3901 20.1681 81.0235 20.8592C81.0217 21.1174 81.0025 21.3752 80.966 21.6309C80.956 21.7025 80.9441 21.7731 80.9313 21.8438C81.0329 21.8425 81.1344 21.8361 81.2354 21.8247C82.4616 21.6698 82.5036 18.8375 81.3541 17.4815Z" fill="#111111"/>
<path d="M81.339 22.3745C80.8378 22.5991 80.7163 23.4524 81.0651 24.2767C81.4139 25.1009 82.1087 25.591 82.61 25.3636L82.6274 25.3554" stroke="#6D6D6D" stroke-width="0.548242" stroke-linecap="round" stroke-linejoin="round"/>
<path d="M73.6768 21.6544C73.1756 21.8791 73.0532 22.7323 73.4029 23.5566C73.7234 24.3102 74.3269 24.783 74.8108 24.6897" stroke="#6D6D6D" stroke-width="0.548242" stroke-linecap="round" stroke-linejoin="round"/>
<path d="M77.3202 22.312L76.5591 22.2595L77.1101 20.3763" stroke="#111111" stroke-width="0.548242" stroke-linecap="round" stroke-linejoin="round"/>
<path d="M79.1678 19.5875C79.1678 19.5875 78.6195 19.0503 78.1406 19.4666" stroke="#111111" stroke-width="0.548242" stroke-linecap="round" stroke-linejoin="round"/>
<path d="M76.6143 19.3322C76.6143 19.3322 75.9051 19.0314 75.5972 19.5858" stroke="#111111" stroke-width="0.548242" stroke-linecap="round" stroke-linejoin="round"/>
<path d="M78.5287 21.1958C78.6691 21.1958 78.7829 21.0217 78.7829 20.8069C78.7829 20.5921 78.6691 20.418 78.5287 20.418C78.3882 20.418 78.2744 20.5921 78.2744 20.8069C78.2744 21.0217 78.3882 21.1958 78.5287 21.1958Z" fill="#111111"/>
<path d="M76.2308 20.8879C76.2518 20.6731 76.1559 20.4881 76.0167 20.4747C75.8774 20.4613 75.7475 20.6245 75.7265 20.8393C75.7055 21.0541 75.8014 21.2391 75.9406 21.2525C76.0799 21.2659 76.2098 21.1027 76.2308 20.8879Z" fill="#111111"/>
<path d="M76.8574 23.6626C76.8574 23.6626 77.7705 24.2387 78.2033 23.322" stroke="#111111" stroke-width="0.548242" stroke-linecap="round" stroke-linejoin="round"/>
<path d="M73.5052 24.8845H68.3784V18.6201H55.4724V24.8845H53.2628C52.7161 24.8845 52.1917 25.1 51.805 25.4836C51.4184 25.8671 51.2012 26.3873 51.2012 26.9298V27.5213C53.471 27.3401 55.592 28.8129 55.8057 28.9252C56.0449 29.0502 56.0997 29.5448 55.5491 29.5421C54.9986 29.5393 53.125 29.1444 53.125 29.1444C53.9376 29.4162 55.7537 30.0502 55.8778 30.2006C56.0687 30.4288 55.7363 30.841 55.1821 30.658L52.8593 29.9125C52.8593 29.9125 55.0606 31.0692 55.2433 31.2332C55.4259 31.3971 54.5302 31.8011 53.4993 31.2694C52.4685 30.7377 52.3735 30.7893 52.3735 30.7893C52.3735 30.7893 54.0481 31.5466 54.2617 31.7449C54.4754 31.9433 53.4473 32.3246 52.1434 31.8654C51.823 31.7532 51.5086 31.625 51.2012 31.4813L51.2012 43.9948C51.2024 44.5364 51.4201 45.0555 51.8066 45.4381C52.1931 45.8206 52.7168 46.0355 53.2628 46.0355H73.5052C74.0518 46.0355 74.5759 45.8201 74.9624 45.4367C75.3489 45.0533 75.566 44.5333 75.566 43.9911V26.9298C75.5661 26.6612 75.5129 26.3953 75.4094 26.1472C75.3059 25.899 75.1541 25.6736 74.9627 25.4836C74.7714 25.2937 74.5441 25.143 74.2941 25.0402C74.044 24.9374 73.7759 24.8845 73.5052 24.8845ZM65.2795 38.2222L63.3439 38.7657C63.1037 38.6325 62.849 38.4939 62.681 38.3961C62.2747 38.1669 62.4445 37.7947 62.9083 37.7702C63.2672 37.7485 64.5445 38.022 65.2795 38.2222ZM68.0653 41.704C67.0709 42.2538 65.684 41.9423 65.684 41.9423C64.6797 42.9205 63.4196 42.4794 63.6105 42.2566C63.8013 42.0337 65.39 41.0908 65.39 41.0908C65.39 41.0908 65.2896 41.0491 64.319 41.6959C63.3484 42.3426 62.4071 42.0374 62.5714 41.8535C62.7358 41.6696 64.8057 40.2684 64.8057 40.2684L62.5687 41.2702C62.0364 41.5147 61.6556 41.1397 61.8209 40.8897C61.9295 40.7267 63.6735 39.8934 64.4541 39.5311C64.4541 39.5311 62.628 40.1343 62.0747 40.1986C61.5214 40.2629 61.5269 39.762 61.7478 39.6108C61.9688 39.4595 64.5126 38.0764 67.1577 38.2747L69.6741 37.83L70.7935 41.4033L68.0653 41.704Z" fill="#6D6D6D"/>
<path d="M60.5444 18.7559V24.6353" stroke="#111111" stroke-width="0.548242" stroke-linecap="round" stroke-linejoin="round"/>
<path d="M57.042 18.9153V20.6363H59.1073V18.9977" stroke="#111111" stroke-width="0.548242" stroke-linecap="round" stroke-linejoin="round"/>
<path d="M66.5712 21.7729H64.2493C63.9145 21.7729 63.6431 22.0422 63.6431 22.3744V22.8336C63.6431 23.1658 63.9145 23.4351 64.2493 23.4351H66.5712C66.9061 23.4351 67.1775 23.1658 67.1775 22.8336V22.3744C67.1775 22.0422 66.9061 21.7729 66.5712 21.7729Z" stroke="#111111" stroke-width="0.548242" stroke-linecap="round" stroke-linejoin="round"/>
<path d="M52.1435 31.867C53.4473 32.3262 54.4754 31.9458 54.2618 31.7465C54.0481 31.5473 52.3736 30.7909 52.3736 30.7909C52.3736 30.7909 52.4649 30.7393 53.4994 31.271C54.5339 31.8027 55.4259 31.3978 55.2433 31.2348C55.0607 31.0717 52.8593 29.9123 52.8593 29.9123L55.1803 30.656C55.7345 30.8371 56.0669 30.4268 55.8761 30.1986C55.7519 30.0491 53.9358 29.416 53.1232 29.1424C53.1232 29.1424 54.9977 29.5364 55.5492 29.5401C56.1007 29.5437 56.045 29.0482 55.8058 28.9232C55.5665 28.7982 52.9488 26.9722 50.4005 27.6551C49.1861 28.2058 47.8987 30.3698 52.1435 31.867Z" stroke="#111111" stroke-width="0.548242" stroke-linecap="round" stroke-linejoin="round"/>
<path d="M58.353 45.7456C58.8545 45.75 59.3371 45.5567 59.695 45.2081C60.0528 44.8596 60.2565 44.3844 60.2613 43.887L60.2613 26.8329C60.2565 26.3354 60.0528 25.8602 59.695 25.5117C59.3371 25.1632 58.8545 24.9698 58.353 24.9742" stroke="#111111" stroke-width="0.548242" stroke-linecap="round" stroke-linejoin="round"/>
<path d="M69.6736 37.8268L67.1572 38.2715C64.5093 38.0732 61.972 39.4554 61.7474 39.6076C61.5227 39.7597 61.5228 40.2597 62.0742 40.1954C62.6257 40.1311 64.4536 39.5278 64.4536 39.5278C63.673 39.8902 61.9291 40.7271 61.8204 40.8865C61.6561 41.1365 62.0359 41.5115 62.5682 41.267L64.8052 40.2652C64.8052 40.2652 62.7344 41.6664 62.5709 41.8503C62.4075 42.0342 63.347 42.3385 64.3185 41.6927C65.29 41.0468 65.3895 41.0876 65.3895 41.0876C65.3895 41.0876 63.8008 42.0305 63.61 42.2533C63.4192 42.4762 64.6828 42.9173 65.6835 41.939C65.6835 41.939 67.0705 42.2506 68.0648 41.7008L70.793 41.3965L69.6736 37.8268Z" stroke="#111111" stroke-width="0.548242" stroke-linecap="round" stroke-linejoin="round"/>
<path d="M65.2802 38.222C64.5498 38.0218 63.2715 37.7482 62.9063 37.7691C62.4425 37.7935 62.2726 38.1658 62.6789 38.395C62.8469 38.4901 63.1017 38.6314 63.3418 38.7645" stroke="#111111" stroke-width="0.548242" stroke-linecap="round" stroke-linejoin="round"/>
<path d="M68.6683 37.7439L69.3321 42.0056C69.3418 42.0776 69.3658 42.147 69.4029 42.2097C69.4399 42.2724 69.4891 42.3272 69.5476 42.3708C69.6061 42.4145 69.6729 42.4462 69.7438 42.464C69.8148 42.4819 69.8887 42.4855 69.9612 42.4748L80.7416 40.6913C80.961 40.6551 81.1705 40.574 81.3566 40.4532C81.5427 40.3323 81.7014 40.1744 81.8226 39.9893C83.0096 38.1777 86.5303 32.6932 86.8937 30.7711C87.1978 29.1679 85.5387 27.3047 83.8094 27.379C83.0434 27.4116 78.9118 35.2521 78.9118 35.2521L69.1577 37.0917C69.0816 37.1009 69.0082 37.1254 68.9419 37.1635C68.8757 37.2017 68.8179 37.2528 68.7722 37.3138C68.7264 37.3748 68.6936 37.4443 68.6757 37.5183C68.6579 37.5922 68.6553 37.6689 68.6683 37.7439Z" fill="#111111"/>
<path d="M45.957 54.7435C45.957 54.7435 49.1682 58.2036 48.1484 64.7533" stroke="#111111" stroke-width="0.548242" stroke-linecap="round" stroke-linejoin="round"/>
<path d="M35.0716 58.2896V57.8449C35.0713 57.7813 35.0552 57.7187 35.0247 57.6628C34.9942 57.6068 34.9504 57.5592 34.897 57.524C34.8436 57.4888 34.7823 57.4672 34.7184 57.4611C34.6546 57.455 34.5903 57.4645 34.5311 57.4889L33.3122 57.9916C33.2572 58.0143 33.2083 58.0492 33.169 58.0935C33.1296 58.1378 33.101 58.1904 33.0853 58.2473C33.0695 58.3043 33.067 58.364 33.078 58.422C33.089 58.48 33.1132 58.5348 33.1487 58.5822L33.4929 59.0351" stroke="#111111" stroke-width="0.548242" stroke-linecap="round" stroke-linejoin="round"/>
<path d="M37.3191 60.7696L38.2184 62.5966L43.9314 62.6872C45.9876 62.5966 47.8749 63.8104 48.7304 65.7832L53.4445 77.9207C53.9503 78.8908 54.0087 80.2522 53.0181 80.7286L52.8282 80.8192C52.6192 80.9277 52.3902 80.993 52.155 81.0109C51.9199 81.0289 51.6835 80.9992 51.4602 80.9238C51.237 80.8483 51.0315 80.7285 50.8564 80.5718C50.6813 80.4151 50.5401 80.2247 50.4415 80.0121C50.4121 79.9454 50.3865 79.877 50.3648 79.8074L47.6859 69.8574L46.4386 70.2106L49.0162 79.9759C49.0415 80.0818 49.0455 80.1917 49.028 80.2992C49.0104 80.4066 48.9716 80.5096 48.9139 80.6022C48.8561 80.6948 48.7805 80.7751 48.6913 80.8386C48.6022 80.9021 48.5013 80.9475 48.3944 80.9723L47.0038 81.0755C46.6598 81.1009 46.3185 80.9998 46.0448 80.7914C45.7712 80.5831 45.5844 80.2822 45.5201 79.946L43.7059 70.7822L40.7165 70.7632L40.5595 80.3754C40.5623 80.4967 40.5408 80.6174 40.4963 80.7305C40.4519 80.8435 40.3853 80.9467 40.3004 81.0341C40.2155 81.1215 40.114 81.1914 40.0018 81.2397C39.8895 81.288 39.7688 81.3138 39.6464 81.3156L38.0148 81.3464C37.8614 81.3496 37.7091 81.3203 37.568 81.2604C37.4269 81.2006 37.3003 81.1116 37.1966 80.9994C37.0929 80.8872 37.0145 80.7544 36.9667 80.6097C36.9188 80.4651 36.9026 80.312 36.9191 80.1607L37.7738 70.5902L36.5338 70.1373L31.1085 79.1045C31.034 79.2253 30.9355 79.3297 30.8191 79.4115C30.7027 79.4934 30.5707 79.5509 30.4312 79.5806C30.2917 79.6104 30.1475 79.6117 30.0075 79.5845C29.8675 79.5573 29.7345 79.5022 29.6165 79.4225L28.4341 78.6145C28.3111 78.531 28.2072 78.4226 28.1295 78.2964C28.0518 78.1702 28.002 78.029 27.9834 77.8823C27.9647 77.7355 27.9777 77.5865 28.0214 77.4451C28.0651 77.3037 28.1386 77.1731 28.2369 77.062L34.4256 67.9145L34.5397 62.0939L31.3112 64.1509C31.2196 64.21 31.1132 64.2427 31.004 64.2455C30.8948 64.2483 30.787 64.221 30.6924 64.1667C30.5979 64.1124 30.5203 64.0331 30.4684 63.9378C30.4164 63.8425 30.3921 63.7347 30.3981 63.6265L30.4958 61.7959C30.5131 61.4788 30.6112 61.1711 30.781 60.9018C30.9507 60.6325 31.1865 60.4104 31.4664 60.2561L34.8538 58.3883C35.0361 58.2872 35.2438 58.2399 35.4523 58.2519C35.6608 58.2639 35.8615 58.3348 36.0307 58.4563" stroke="#111111" stroke-width="0.548242" stroke-linecap="round" stroke-linejoin="round"/>
<path d="M36.4527 61.4263L39.2311 59.1872C39.3138 59.1205 39.3788 59.0347 39.4202 58.9372C39.4616 58.8398 39.4782 58.7337 39.4685 58.6284C39.4589 58.523 39.4232 58.4217 39.3648 58.3332C39.3064 58.2448 39.2269 58.1719 39.1334 58.1211L37.2105 57.0768C37.1237 57.0297 37.0271 57.0028 36.9283 56.9983C36.8294 56.9938 36.7308 57.0117 36.64 57.0506C36.5491 57.0896 36.4684 57.1485 36.404 57.2231C36.3396 57.2976 36.2932 57.3857 36.2682 57.4807L35.4118 60.7642C35.377 60.896 35.3852 61.0352 35.4352 61.1621C35.4851 61.2889 35.5743 61.3968 35.6898 61.4703C35.8054 61.5438 35.9414 61.5792 36.0784 61.5713C36.2155 61.5634 36.3465 61.5126 36.4527 61.4263Z" stroke="#111111" stroke-width="0.548242" stroke-linecap="round" stroke-linejoin="round"/>
<path d="M34.3433 59.747C34.3523 59.5755 34.2643 59.4316 34.1468 59.4255C34.0292 59.4194 33.9267 59.5535 33.9177 59.725C33.9087 59.8965 33.9966 60.0405 34.1142 60.0466C34.2317 60.0526 34.3343 59.9185 34.3433 59.747Z" fill="#111111"/>
<path d="M30.6909 62.9475C30.701 63.0835 31.422 63.1288 31.7382 62.5123" stroke="#111111" stroke-width="0.548242" stroke-linecap="round" stroke-linejoin="round"/>
<path d="M31.6277 61.255C31.6394 60.8284 31.3788 60.4754 31.0456 60.4664C30.7124 60.4574 30.4328 60.7958 30.4211 61.2224C30.4094 61.649 30.67 62.002 31.0032 62.0111C31.3364 62.0201 31.616 61.6816 31.6277 61.255Z" fill="#111111"/>
<path d="M46.9167 63.5567C46.0448 62.9504 44.9958 62.6458 43.9319 62.6899L39.1558 62.6111C39.2416 63.0839 39.7036 65.6328 39.7949 66.1373C39.8944 66.6925 39.9227 67.8719 41.6822 67.477C43.2243 67.1319 45.6932 65.1355 46.9167 63.5567Z" stroke="#111111" stroke-width="0.548242" stroke-linecap="round" stroke-linejoin="round"/>
<path d="M39.0301 60.7995L33.3236 64.1917C33.1992 64.2656 33.1074 64.3832 33.0665 64.5211C33.0255 64.6591 33.0384 64.8073 33.1026 64.9362L33.3765 65.4906C33.4126 65.5634 33.464 65.6277 33.5271 65.6793C33.5902 65.7309 33.6636 65.7687 33.7425 65.79C33.8214 65.8113 33.904 65.8158 33.9848 65.803C34.0656 65.7903 34.1427 65.7607 34.211 65.7161L39.8345 62.0567C39.8982 62.0153 39.9529 61.9618 39.9956 61.8992C40.0383 61.8367 40.0681 61.7664 40.0833 61.6924C40.0985 61.6184 40.0988 61.5421 40.0841 61.468C40.0695 61.3939 40.0402 61.3234 39.998 61.2606L39.8053 60.9734C39.7233 60.8512 39.5971 60.765 39.4528 60.7326C39.3085 60.7003 39.1571 60.7242 39.0301 60.7995Z" fill="#111111"/>
<path d="M68.1413 41.278L38.6963 62.0503" stroke="#111111" stroke-width="0.548242" stroke-linecap="round" stroke-linejoin="round"/>
<path d="M67.8841 37.3162L67.3822 37.3919C67.2396 37.4134 67.1416 37.5455 67.1633 37.6869L67.8277 42.0247C67.8493 42.1662 67.9825 42.2634 68.1251 42.2419L68.627 42.1663C68.7696 42.1448 68.8676 42.0127 68.8459 41.8712L68.1815 37.5334C68.1598 37.392 68.0267 37.2947 67.8841 37.3162Z" fill="#111111"/>
<path d="M108.809 80.9904H144.225C144.98 80.9904 145.591 80.3837 145.591 79.6354V62.4463C145.591 61.6979 144.98 61.0912 144.225 61.0912H108.809C108.055 61.0912 107.443 61.6979 107.443 62.4463V79.6354C107.443 80.3837 108.055 80.9904 108.809 80.9904Z" fill="#6D6D6D"/>
<path d="M120.373 61.3775C119.355 61.3775 118.53 62.0605 118.53 62.9019V79.4705C118.53 80.312 119.352 80.995 120.373 80.995" stroke="#111111" stroke-width="0.548242" stroke-linecap="round" stroke-linejoin="round"/>
<path d="M114.632 67.6346V62.6374C114.632 61.7833 115.454 61.0912 116.476 61.0912H113.023C112.005 61.0912 111.179 61.7833 111.179 62.6374V67.6346H114.632Z" stroke="#111111" stroke-width="0.548242" stroke-linecap="round" stroke-linejoin="round"/>
<path d="M163.24 80.8683L0.625 81.5023" stroke="#111111" stroke-width="0.548242" stroke-linecap="round" stroke-linejoin="round"/>
</svg>
